<svg xmlns="http://www.w3.org/2000/svg" width="495" height="195" viewBox="0 0 495 195" role="img" aria-label="Contribution song · 1:32 · 852 contributions">
<title>Contribution song · 1:32 · 852 contributions</title>
<rect x="0.5" y="0.5" width="494" height="194" rx="4.5" fill="#1a1b27" stroke="#e4e2e2" stroke-opacity="1"/>

<text x="25" y="35" font-family="'Segoe UI', Ubuntu, 'Helvetica Neue', Sans-Serif" font-size="18" font-weight="600" fill="#70a5fd">Contribution song</text>
<text x="470" y="34" text-anchor="end" font-family="'Segoe UI', Ubuntu, 'Helvetica Neue', Sans-Serif" font-size="11" fill="#a9b1d6">140 BPM · A minor · 1 bar = 1 week</text>
<rect x="25.0" y="87.7" width="3.4" height="8.5" rx="1" fill="#a9b1d6" fill-opacity="0.52"/>
<rect x="29.6" y="83.4" width="3.4" height="17.1" rx="1" fill="#a9b1d6" fill-opacity="0.59"/>
<rect x="34.3" y="84.5" width="3.4" height="15.1" rx="1" fill="#a9b1d6" fill-opacity="0.57"/>
<rect x="38.9" y="83.6" width="3.4" height="16.8" rx="1" fill="#a9b1d6" fill-opacity="0.59"/>
<rect x="43.5" y="87.7" width="3.4" height="8.6" rx="1" fill="#a9b1d6" fill-opacity="0.52"/>
<rect x="48.2" y="87.9" width="3.4" height="8.3" rx="1" fill="#a9b1d6" fill-opacity="0.52"/>
<rect x="52.8" y="87.9" width="3.4" height="8.2" rx="1" fill="#a9b1d6" fill-opacity="0.52"/>
<rect x="57.4" y="65.9" width="3.4" height="52.3" rx="1" fill="#38bdae" fill-opacity="0.87"/>
<rect x="62.1" y="75.6" width="3.4" height="32.9" rx="1" fill="#38bdae" fill-opacity="0.72"/>
<rect x="66.7" y="69.0" width="3.4" height="46.0" rx="1" fill="#38bdae" fill-opacity="0.82"/>
<rect x="71.4" y="68.0" width="3.4" height="48.1" rx="1" fill="#38bdae" fill-opacity="0.84"/>
<rect x="76.0" y="74.6" width="3.4" height="34.8" rx="1" fill="#38bdae" fill-opacity="0.73"/>
<rect x="80.6" y="63.4" width="3.4" height="57.2" rx="1" fill="#38bdae" fill-opacity="0.91"/>
<rect x="85.3" y="82.1" width="3.4" height="19.8" rx="1" fill="#38bdae" fill-opacity="0.61"/>
<rect x="89.9" y="64.3" width="3.4" height="55.5" rx="1" fill="#38bdae" fill-opacity="0.90"/>
<rect x="94.5" y="79.3" width="3.4" height="25.5" rx="1" fill="#38bdae" fill-opacity="0.66"/>
<rect x="99.2" y="66.4" width="3.4" height="51.1" rx="1" fill="#38bdae" fill-opacity="0.86"/>
<rect x="103.8" y="70.4" width="3.4" height="43.2" rx="1" fill="#38bdae" fill-opacity="0.80"/>
<rect x="108.4" y="72.8" width="3.4" height="38.4" rx="1" fill="#38bdae" fill-opacity="0.76"/>
<rect x="113.1" y="65.8" width="3.4" height="52.4" rx="1" fill="#38bdae" fill-opacity="0.87"/>
<rect x="117.7" y="79.1" width="3.4" height="25.7" rx="1" fill="#38bdae" fill-opacity="0.66"/>
<rect x="122.3" y="63.5" width="3.4" height="57.0" rx="1" fill="#a9b1d6" fill-opacity="0.91"/>
<rect x="127.0" y="82.8" width="3.4" height="18.4" rx="1" fill="#a9b1d6" fill-opacity="0.60"/>
<rect x="131.6" y="78.9" width="3.4" height="26.2" rx="1" fill="#a9b1d6" fill-opacity="0.66"/>
<rect x="136.2" y="72.7" width="3.4" height="38.6" rx="1" fill="#a9b1d6" fill-opacity="0.76"/>
<rect x="140.9" y="68.7" width="3.4" height="46.6" rx="1" fill="#bf91f3" fill-opacity="0.83"/>
<rect x="145.5" y="67.2" width="3.4" height="49.6" rx="1" fill="#bf91f3" fill-opacity="0.85"/>
<rect x="150.2" y="74.0" width="3.4" height="36.1" rx="1" fill="#bf91f3" fill-opacity="0.74"/>
<rect x="154.8" y="66.5" width="3.4" height="51.0" rx="1" fill="#bf91f3" fill-opacity="0.86"/>
<rect x="159.4" y="78.7" width="3.4" height="26.5" rx="1" fill="#bf91f3" fill-opacity="0.66"/>
<rect x="164.1" y="64.6" width="3.4" height="54.9" rx="1" fill="#bf91f3" fill-opacity="0.89"/>
<rect x="168.7" y="75.2" width="3.4" height="33.7" rx="1" fill="#bf91f3" fill-opacity="0.72"/>
<rect x="173.3" y="62.2" width="3.4" height="59.5" rx="1" fill="#bf91f3" fill-opacity="0.93"/>
<rect x="178.0" y="63.2" width="3.4" height="57.6" rx="1" fill="#bf91f3" fill-opacity="0.92"/>
<rect x="182.6" y="60.2" width="3.4" height="63.6" rx="1" fill="#bf91f3" fill-opacity="0.96"/>
<rect x="187.2" y="62.3" width="3.4" height="59.5" rx="1" fill="#bf91f3" fill-opacity="0.93"/>
<rect x="191.9" y="68.2" width="3.4" height="47.6" rx="1" fill="#bf91f3" fill-opacity="0.83"/>
<rect x="196.5" y="61.5" width="3.4" height="61.0" rx="1" fill="#bf91f3" fill-opacity="0.94"/>
<rect x="201.1" y="71.9" width="3.4" height="40.3" rx="1" fill="#bf91f3" fill-opacity="0.78"/>
<rect x="205.8" y="64.6" width="3.4" height="54.8" rx="1" fill="#bf91f3" fill-opacity="0.89"/>
<rect x="210.4" y="74.0" width="3.4" height="36.0" rx="1" fill="#bf91f3" fill-opacity="0.74"/>
<rect x="215.1" y="71.7" width="3.4" height="40.7" rx="1" fill="#bf91f3" fill-opacity="0.78"/>
<rect x="219.7" y="68.3" width="3.4" height="47.4" rx="1" fill="#bf91f3" fill-opacity="0.83"/>
<rect x="224.3" y="66.4" width="3.4" height="51.1" rx="1" fill="#bf91f3" fill-opacity="0.86"/>
<rect x="229.0" y="67.1" width="3.4" height="49.8" rx="1" fill="#bf91f3" fill-opacity="0.85"/>
<rect x="233.6" y="80.6" width="3.4" height="22.9" rx="1" fill="#bf91f3" fill-opacity="0.64"/>
<rect x="238.2" y="64.9" width="3.4" height="54.2" rx="1" fill="#38bdae" fill-opacity="0.89"/>
<rect x="242.9" y="74.8" width="3.4" height="34.4" rx="1" fill="#38bdae" fill-opacity="0.73"/>
<rect x="247.5" y="60.8" width="3.4" height="62.4" rx="1" fill="#38bdae" fill-opacity="0.95"/>
<rect x="252.1" y="58.0" width="3.4" height="68.0" rx="1" fill="#38bdae" fill-opacity="1.00"/>
<rect x="256.8" y="64.0" width="3.4" height="56.0" rx="1" fill="#38bdae" fill-opacity="0.90"/>
<rect x="261.4" y="63.1" width="3.4" height="57.8" rx="1" fill="#38bdae" fill-opacity="0.92"/>
<rect x="266.0" y="66.2" width="3.4" height="51.7" rx="1" fill="#38bdae" fill-opacity="0.87"/>
<rect x="270.7" y="64.0" width="3.4" height="56.0" rx="1" fill="#38bdae" fill-opacity="0.90"/>
<rect x="275.3" y="78.8" width="3.4" height="26.4" rx="1" fill="#38bdae" fill-opacity="0.66"/>
<rect x="279.9" y="66.9" width="3.4" height="50.2" rx="1" fill="#38bdae" fill-opacity="0.86"/>
<rect x="284.6" y="70.2" width="3.4" height="43.6" rx="1" fill="#38bdae" fill-opacity="0.80"/>
<rect x="289.2" y="73.0" width="3.4" height="37.9" rx="1" fill="#38bdae" fill-opacity="0.76"/>
<rect x="293.9" y="63.9" width="3.4" height="56.1" rx="1" fill="#38bdae" fill-opacity="0.90"/>
<rect x="298.5" y="66.2" width="3.4" height="51.7" rx="1" fill="#38bdae" fill-opacity="0.87"/>
<rect x="303.1" y="87.4" width="3.4" height="9.2" rx="1" fill="#a9b1d6" fill-opacity="0.52"/>
<rect x="307.8" y="81.9" width="3.4" height="20.2" rx="1" fill="#a9b1d6" fill-opacity="0.61"/>
<rect x="312.4" y="82.4" width="3.4" height="19.2" rx="1" fill="#a9b1d6" fill-opacity="0.60"/>
<rect x="317.0" y="85.8" width="3.4" height="12.4" rx="1" fill="#a9b1d6" fill-opacity="0.55"/>
<rect x="321.7" y="81.1" width="3.4" height="21.8" rx="1" fill="#a9b1d6" fill-opacity="0.63"/>
<rect x="326.3" y="85.9" width="3.4" height="12.3" rx="1" fill="#a9b1d6" fill-opacity="0.55"/>
<rect x="330.9" y="88.6" width="3.4" height="6.7" rx="1" fill="#a9b1d6" fill-opacity="0.50"/>
<rect x="335.6" y="65.1" width="3.4" height="53.8" rx="1" fill="#a9b1d6" fill-opacity="0.89"/>
<rect x="340.2" y="68.0" width="3.4" height="48.0" rx="1" fill="#a9b1d6" fill-opacity="0.84"/>
<rect x="344.8" y="79.4" width="3.4" height="25.2" rx="1" fill="#a9b1d6" fill-opacity="0.65"/>
<rect x="349.5" y="75.5" width="3.4" height="33.1" rx="1" fill="#a9b1d6" fill-opacity="0.72"/>
<rect x="354.1" y="67.3" width="3.4" height="49.4" rx="1" fill="#bf91f3" fill-opacity="0.85"/>
<rect x="358.8" y="70.1" width="3.4" height="43.8" rx="1" fill="#bf91f3" fill-opacity="0.80"/>
<rect x="363.4" y="72.3" width="3.4" height="39.4" rx="1" fill="#bf91f3" fill-opacity="0.77"/>
<rect x="368.0" y="67.5" width="3.4" height="49.0" rx="1" fill="#bf91f3" fill-opacity="0.85"/>
<rect x="372.7" y="67.6" width="3.4" height="48.8" rx="1" fill="#bf91f3" fill-opacity="0.84"/>
<rect x="377.3" y="64.1" width="3.4" height="55.8" rx="1" fill="#bf91f3" fill-opacity="0.90"/>
<rect x="381.9" y="77.0" width="3.4" height="30.1" rx="1" fill="#bf91f3" fill-opacity="0.69"/>
<rect x="386.6" y="64.1" width="3.4" height="55.8" rx="1" fill="#bf91f3" fill-opacity="0.90"/>
<rect x="391.2" y="71.1" width="3.4" height="41.8" rx="1" fill="#bf91f3" fill-opacity="0.79"/>
<rect x="395.8" y="67.3" width="3.4" height="49.4" rx="1" fill="#bf91f3" fill-opacity="0.85"/>
<rect x="400.5" y="67.7" width="3.4" height="48.6" rx="1" fill="#bf91f3" fill-opacity="0.84"/>
<rect x="405.1" y="75.3" width="3.4" height="33.4" rx="1" fill="#bf91f3" fill-opacity="0.72"/>
<rect x="409.7" y="65.8" width="3.4" height="52.4" rx="1" fill="#bf91f3" fill-opacity="0.87"/>
<rect x="414.4" y="81.5" width="3.4" height="21.1" rx="1" fill="#bf91f3" fill-opacity="0.62"/>
<rect x="419.0" y="84.2" width="3.4" height="15.6" rx="1" fill="#a9b1d6" fill-opacity="0.58"/>
<rect x="423.6" y="85.0" width="3.4" height="14.0" rx="1" fill="#a9b1d6" fill-opacity="0.56"/>
<rect x="428.3" y="85.7" width="3.4" height="12.6" rx="1" fill="#a9b1d6" fill-opacity="0.55"/>
<rect x="432.9" y="87.2" width="3.4" height="9.6" rx="1" fill="#a9b1d6" fill-opacity="0.53"/>
<rect x="437.6" y="82.7" width="3.4" height="18.6" rx="1" fill="#a9b1d6" fill-opacity="0.60"/>
<rect x="442.2" y="84.3" width="3.4" height="15.5" rx="1" fill="#a9b1d6" fill-opacity="0.58"/>
<rect x="446.8" y="84.1" width="3.4" height="15.8" rx="1" fill="#a9b1d6" fill-opacity="0.58"/>
<rect x="451.5" y="87.7" width="3.4" height="8.5" rx="1" fill="#a9b1d6" fill-opacity="0.52"/>
<rect x="456.1" y="87.2" width="3.4" height="9.5" rx="1" fill="#a9b1d6" fill-opacity="0.53"/>
<rect x="460.7" y="90.5" width="3.4" height="3.0" rx="1" fill="#a9b1d6" fill-opacity="0.46"/>
<rect x="465.4" y="90.5" width="3.4" height="3.0" rx="1" fill="#a9b1d6" fill-opacity="0.45"/>
<rect x="25.0" y="136" width="30.9" height="3" rx="1.5" fill="#a9b1d6" fill-opacity="0.8"/>
<text x="41.4" y="152" text-anchor="middle" font-family="'Segoe UI', Ubuntu, 'Helvetica Neue', Sans-Serif" font-size="10" fill="#a9b1d6">In</text>
<rect x="57.9" y="136" width="63.7" height="3" rx="1.5" fill="#38bdae" fill-opacity="0.8"/>
<text x="90.7" y="152" text-anchor="middle" font-family="'Segoe UI', Ubuntu, 'Helvetica Neue', Sans-Serif" font-size="10" fill="#a9b1d6">V1</text>
<rect x="123.6" y="136" width="14.4" height="3" rx="1.5" fill="#a9b1d6" fill-opacity="0.8"/>
<rect x="140.0" y="136" width="63.7" height="3" rx="1.5" fill="#bf91f3" fill-opacity="0.8"/>
<text x="172.9" y="152" text-anchor="middle" font-family="'Segoe UI', Ubuntu, 'Helvetica Neue', Sans-Serif" font-size="10" fill="#a9b1d6">Chorus</text>
<rect x="205.7" y="136" width="30.9" height="3" rx="1.5" fill="#bf91f3" fill-opacity="0.8"/>
<text x="222.2" y="152" text-anchor="middle" font-family="'Segoe UI', Ubuntu, 'Helvetica Neue', Sans-Serif" font-size="10" fill="#a9b1d6">Hook</text>
<rect x="238.6" y="136" width="63.7" height="3" rx="1.5" fill="#38bdae" fill-opacity="0.8"/>
<text x="271.5" y="152" text-anchor="middle" font-family="'Segoe UI', Ubuntu, 'Helvetica Neue', Sans-Serif" font-size="10" fill="#a9b1d6">V2</text>
<rect x="304.3" y="136" width="30.9" height="3" rx="1.5" fill="#a9b1d6" fill-opacity="0.8"/>
<text x="320.8" y="152" text-anchor="middle" font-family="'Segoe UI', Ubuntu, 'Helvetica Neue', Sans-Serif" font-size="10" fill="#a9b1d6">Break</text>
<rect x="337.2" y="136" width="14.4" height="3" rx="1.5" fill="#a9b1d6" fill-opacity="0.8"/>
<rect x="353.6" y="136" width="63.7" height="3" rx="1.5" fill="#bf91f3" fill-opacity="0.8"/>
<text x="386.5" y="152" text-anchor="middle" font-family="'Segoe UI', Ubuntu, 'Helvetica Neue', Sans-Serif" font-size="10" fill="#a9b1d6">Chorus</text>
<rect x="419.3" y="136" width="39.1" height="3" rx="1.5" fill="#a9b1d6" fill-opacity="0.8"/>
<text x="439.9" y="152" text-anchor="middle" font-family="'Segoe UI', Ubuntu, 'Helvetica Neue', Sans-Serif" font-size="10" fill="#a9b1d6">Out</text>
<text x="25" y="177" font-family="'Segoe UI', Ubuntu, 'Helvetica Neue', Sans-Serif" font-size="11.5" fill="#38bdae"><tspan font-weight="700">1:32</tspan> · 852 contributions · 10 sections</text>
<text x="470" y="177" text-anchor="end" font-family="'Segoe UI', Ubuntu, 'Helvetica Neue', Sans-Serif" font-size="10" fill="#a9b1d6">vocals: Piper TTS, two voices</text>
</svg>
